<svg width="184" height="150" viewBox="0 0 184 150" fill="none" xmlns="http://www.w3.org/2000/svg">
<circle cx="8" cy="8" r="8" fill="#2728FF" fill-opacity="0.75"/>
<circle cx="8" cy="104" r="8" fill="#2728FF" fill-opacity="0.75"/>
<circle cx="8" cy="56" r="8" fill="#2728FF" fill-opacity="0.75"/>
<circle cx="8" cy="152" r="8" fill="#2728FF" fill-opacity="0.75"/>
<circle cx="8" cy="32" r="8" fill="#2728FF" fill-opacity="0.75"/>
<circle cx="8" cy="128" r="8" fill="#2728FF" fill-opacity="0.75"/>
<circle cx="8" cy="80" r="8" fill="#2728FF" fill-opacity="0.75"/>
<circle cx="104" cy="8" r="8" fill="#2728FF" fill-opacity="0.75"/>
<circle cx="104" cy="104" r="8" fill="#2728FF" fill-opacity="0.75"/>
<circle cx="104" cy="56" r="8" fill="#2728FF" fill-opacity="0.75"/>
<circle cx="104" cy="152" r="8" fill="#2728FF" fill-opacity="0.75"/>
<circle cx="104" cy="32" r="8" fill="#2728FF" fill-opacity="0.75"/>
<circle cx="104" cy="128" r="8" fill="#2728FF" fill-opacity="0.75"/>
<circle cx="104" cy="80" r="8" fill="#2728FF" fill-opacity="0.75"/>
<circle cx="56" cy="8" r="8" fill="#2728FF" fill-opacity="0.75"/>
<circle cx="56" cy="104" r="8" fill="#2728FF" fill-opacity="0.75"/>
<circle cx="56" cy="56" r="8" fill="#2728FF" fill-opacity="0.75"/>
<circle cx="56" cy="152" r="8" fill="#2728FF" fill-opacity="0.75"/>
<circle cx="56" cy="32" r="8" fill="#2728FF" fill-opacity="0.75"/>
<circle cx="56" cy="128" r="8" fill="#2728FF" fill-opacity="0.75"/>
<circle cx="56" cy="80" r="8" fill="#2728FF" fill-opacity="0.75"/>
<circle cx="152" cy="8" r="8" fill="#2728FF" fill-opacity="0.75"/>
<circle cx="152" cy="104" r="8" fill="#2728FF" fill-opacity="0.75"/>
<circle cx="152" cy="56" r="8" fill="#2728FF" fill-opacity="0.75"/>
<circle cx="152" cy="152" r="8" fill="#2728FF" fill-opacity="0.75"/>
<circle cx="152" cy="32" r="8" fill="#2728FF" fill-opacity="0.75"/>
<circle cx="152" cy="128" r="8" fill="#2728FF" fill-opacity="0.75"/>
<circle cx="152" cy="80" r="8" fill="#2728FF" fill-opacity="0.75"/>
<circle cx="32" cy="8" r="8" fill="#2728FF" fill-opacity="0.75"/>
<circle cx="32" cy="104" r="8" fill="#2728FF" fill-opacity="0.75"/>
<circle cx="32" cy="56" r="8" fill="#2728FF" fill-opacity="0.75"/>
<circle cx="32" cy="152" r="8" fill="#2728FF" fill-opacity="0.75"/>
<circle cx="32" cy="32" r="8" fill="#2728FF" fill-opacity="0.75"/>
<circle cx="32" cy="128" r="8" fill="#2728FF" fill-opacity="0.75"/>
<circle cx="32" cy="80" r="8" fill="#2728FF" fill-opacity="0.75"/>
<circle cx="128" cy="8" r="8" fill="#2728FF" fill-opacity="0.75"/>
<circle cx="128" cy="104" r="8" fill="#2728FF" fill-opacity="0.75"/>
<circle cx="128" cy="56" r="8" fill="#2728FF" fill-opacity="0.75"/>
<circle cx="128" cy="152" r="8" fill="#2728FF" fill-opacity="0.75"/>
<circle cx="128" cy="32" r="8" fill="#2728FF" fill-opacity="0.75"/>
<circle cx="128" cy="128" r="8" fill="#2728FF" fill-opacity="0.75"/>
<circle cx="128" cy="80" r="8" fill="#2728FF" fill-opacity="0.75"/>
<circle cx="80" cy="8" r="8" fill="#2728FF" fill-opacity="0.75"/>
<circle cx="80" cy="104" r="8" fill="#2728FF" fill-opacity="0.75"/>
<circle cx="80" cy="56" r="8" fill="#2728FF" fill-opacity="0.75"/>
<circle cx="80" cy="152" r="8" fill="#2728FF" fill-opacity="0.75"/>
<circle cx="80" cy="32" r="8" fill="#2728FF" fill-opacity="0.75"/>
<circle cx="80" cy="128" r="8" fill="#2728FF" fill-opacity="0.75"/>
<circle cx="80" cy="80" r="8" fill="#2728FF" fill-opacity="0.75"/>
<circle cx="176" cy="8" r="8" fill="#2728FF" fill-opacity="0.75"/>
<circle cx="176" cy="104" r="8" fill="#2728FF" fill-opacity="0.75"/>
<circle cx="176" cy="56" r="8" fill="#2728FF" fill-opacity="0.75"/>
<circle cx="176" cy="152" r="8" fill="#2728FF" fill-opacity="0.75"/>
<circle cx="176" cy="32" r="8" fill="#2728FF" fill-opacity="0.75"/>
<circle cx="176" cy="128" r="8" fill="#2728FF" fill-opacity="0.75"/>
<circle cx="176" cy="80" r="8" fill="#2728FF" fill-opacity="0.75"/>
</svg>
