<svg width="184" height="170" viewBox="0 0 184 170" fill="none" xmlns="http://www.w3.org/2000/svg">
<circle cx="8" cy="-6" r="8" fill="#2728FF" fill-opacity="0.5"/>
<circle cx="8" cy="90" r="8" fill="#2728FF" fill-opacity="0.5"/>
<circle cx="8" cy="42" r="8" fill="#2728FF" fill-opacity="0.5"/>
<circle cx="8" cy="138" r="8" fill="#2728FF" fill-opacity="0.5"/>
<circle cx="8" cy="18" r="8" fill="#2728FF" fill-opacity="0.5"/>
<circle cx="8" cy="114" r="8" fill="#2728FF" fill-opacity="0.5"/>
<circle cx="8" cy="66" r="8" fill="#2728FF" fill-opacity="0.5"/>
<circle cx="8" cy="162" r="8" fill="#2728FF" fill-opacity="0.5"/>
<circle cx="104" cy="-6" r="8" fill="#2728FF" fill-opacity="0.5"/>
<circle cx="104" cy="90" r="8" fill="#2728FF" fill-opacity="0.5"/>
<circle cx="104" cy="42" r="8" fill="#2728FF" fill-opacity="0.5"/>
<circle cx="104" cy="138" r="8" fill="#2728FF" fill-opacity="0.5"/>
<circle cx="104" cy="18" r="8" fill="#2728FF" fill-opacity="0.5"/>
<circle cx="104" cy="114" r="8" fill="#2728FF" fill-opacity="0.5"/>
<circle cx="104" cy="66" r="8" fill="#2728FF" fill-opacity="0.5"/>
<circle cx="104" cy="162" r="8" fill="#2728FF" fill-opacity="0.5"/>
<circle cx="56" cy="-6" r="8" fill="#2728FF" fill-opacity="0.5"/>
<circle cx="56" cy="90" r="8" fill="#2728FF" fill-opacity="0.5"/>
<circle cx="56" cy="42" r="8" fill="#2728FF" fill-opacity="0.5"/>
<circle cx="56" cy="138" r="8" fill="#2728FF" fill-opacity="0.5"/>
<circle cx="56" cy="18" r="8" fill="#2728FF" fill-opacity="0.5"/>
<circle cx="56" cy="114" r="8" fill="#2728FF" fill-opacity="0.5"/>
<circle cx="56" cy="66" r="8" fill="#2728FF" fill-opacity="0.5"/>
<circle cx="56" cy="162" r="8" fill="#2728FF" fill-opacity="0.5"/>
<circle cx="152" cy="-6" r="8" fill="#2728FF" fill-opacity="0.5"/>
<circle cx="152" cy="90" r="8" fill="#2728FF" fill-opacity="0.5"/>
<circle cx="152" cy="42" r="8" fill="#2728FF" fill-opacity="0.5"/>
<circle cx="152" cy="138" r="8" fill="#2728FF" fill-opacity="0.5"/>
<circle cx="152" cy="18" r="8" fill="#2728FF" fill-opacity="0.5"/>
<circle cx="152" cy="114" r="8" fill="#2728FF" fill-opacity="0.5"/>
<circle cx="152" cy="66" r="8" fill="#2728FF" fill-opacity="0.5"/>
<circle cx="152" cy="162" r="8" fill="#2728FF" fill-opacity="0.5"/>
<circle cx="32" cy="-6" r="8" fill="#2728FF" fill-opacity="0.5"/>
<circle cx="32" cy="90" r="8" fill="#2728FF" fill-opacity="0.5"/>
<circle cx="32" cy="42" r="8" fill="#2728FF" fill-opacity="0.5"/>
<circle cx="32" cy="138" r="8" fill="#2728FF" fill-opacity="0.5"/>
<circle cx="32" cy="18" r="8" fill="#2728FF" fill-opacity="0.5"/>
<circle cx="32" cy="114" r="8" fill="#2728FF" fill-opacity="0.5"/>
<circle cx="32" cy="66" r="8" fill="#2728FF" fill-opacity="0.5"/>
<circle cx="32" cy="162" r="8" fill="#2728FF" fill-opacity="0.5"/>
<circle cx="128" cy="-6" r="8" fill="#2728FF" fill-opacity="0.5"/>
<circle cx="128" cy="90" r="8" fill="#2728FF" fill-opacity="0.5"/>
<circle cx="128" cy="42" r="8" fill="#2728FF" fill-opacity="0.5"/>
<circle cx="128" cy="138" r="8" fill="#2728FF" fill-opacity="0.5"/>
<circle cx="128" cy="18" r="8" fill="#2728FF" fill-opacity="0.5"/>
<circle cx="128" cy="114" r="8" fill="#2728FF" fill-opacity="0.5"/>
<circle cx="128" cy="66" r="8" fill="#2728FF" fill-opacity="0.5"/>
<circle cx="128" cy="162" r="8" fill="#2728FF" fill-opacity="0.5"/>
<circle cx="80" cy="-6" r="8" fill="#2728FF" fill-opacity="0.5"/>
<circle cx="80" cy="90" r="8" fill="#2728FF" fill-opacity="0.5"/>
<circle cx="80" cy="42" r="8" fill="#2728FF" fill-opacity="0.5"/>
<circle cx="80" cy="138" r="8" fill="#2728FF" fill-opacity="0.5"/>
<circle cx="80" cy="18" r="8" fill="#2728FF" fill-opacity="0.5"/>
<circle cx="80" cy="114" r="8" fill="#2728FF" fill-opacity="0.5"/>
<circle cx="80" cy="66" r="8" fill="#2728FF" fill-opacity="0.5"/>
<circle cx="80" cy="162" r="8" fill="#2728FF" fill-opacity="0.5"/>
<circle cx="176" cy="-6" r="8" fill="#2728FF" fill-opacity="0.5"/>
<circle cx="176" cy="90" r="8" fill="#2728FF" fill-opacity="0.5"/>
<circle cx="176" cy="42" r="8" fill="#2728FF" fill-opacity="0.5"/>
<circle cx="176" cy="138" r="8" fill="#2728FF" fill-opacity="0.5"/>
<circle cx="176" cy="18" r="8" fill="#2728FF" fill-opacity="0.5"/>
<circle cx="176" cy="114" r="8" fill="#2728FF" fill-opacity="0.5"/>
<circle cx="176" cy="66" r="8" fill="#2728FF" fill-opacity="0.5"/>
<circle cx="176" cy="162" r="8" fill="#2728FF" fill-opacity="0.5"/>
</svg>
