<svg width="350" height="110" viewBox="0 0 350 110" fill="none" xmlns="http://www.w3.org/2000/svg">
<path fill-rule="evenodd" clip-rule="evenodd" d="M63.936 9.984H44.928V35.232H19.008V9.984H0V66.184H19.008V50.976H44.928V77.184H63.936V9.984ZM87.4238 74.592C91.8398 76.896 96.8958 78.048 102.592 78.048C108.288 78.048 113.344 76.896 117.76 74.592C122.24 72.288 125.728 69.12 128.224 65.088C130.72 60.992 131.968 56.32 131.968 51.072C131.968 45.824 130.72 41.184 128.224 37.152C125.728 33.12 122.24 29.984 117.76 27.744C113.344 25.44 108.288 24.288 102.592 24.288C96.8958 24.288 91.8398 25.44 87.4238 27.744C83.0078 29.984 79.5198 33.12 76.9597 37.152C74.4637 41.184 73.2158 45.824 73.2158 51.072C73.2158 56.32 74.4637 60.992 76.9597 65.088C79.5198 69.12 83.0078 72.288 87.4238 74.592ZM108.16 62.112C106.56 63.072 104.704 63.552 102.592 63.552C100.544 63.552 98.6878 63.072 97.0238 62.112C95.4238 61.152 94.1117 59.744 93.0878 57.888C92.1277 55.968 91.6478 53.696 91.6478 51.072C91.6478 48.448 92.1277 46.24 93.0878 44.448C94.1117 42.592 95.4238 41.184 97.0238 40.224C98.6878 39.264 100.544 38.784 102.592 38.784C104.704 38.784 106.56 39.264 108.16 40.224C109.824 41.184 111.136 42.592 112.096 44.448C113.056 46.24 113.536 48.448 113.536 51.072C113.536 53.696 113.056 55.968 112.096 57.888C111.136 59.744 109.824 61.152 108.16 62.112ZM140.417 5.952V77.184H158.657V5.952H140.417ZM181.455 74.592C185.871 76.896 190.927 78.048 196.623 78.048C202.319 78.048 207.375 76.896 211.791 74.592C216.271 72.288 219.759 69.12 222.255 65.088C224.751 60.992 225.999 56.32 225.999 51.072C225.999 45.824 224.751 41.184 222.255 37.152C219.759 33.12 216.271 29.984 211.791 27.744C207.375 25.44 202.319 24.288 196.623 24.288C190.927 24.288 185.871 25.44 181.455 27.744C177.039 29.984 173.551 33.12 170.991 37.152C168.495 41.184 167.247 45.824 167.247 51.072C167.247 56.32 168.495 60.992 170.991 65.088C173.551 69.12 177.039 72.288 181.455 74.592ZM202.191 62.112C200.591 63.072 198.735 63.552 196.623 63.552C194.575 63.552 192.719 63.072 191.055 62.112C189.455 61.152 188.143 59.744 187.119 57.888C186.159 55.968 185.679 53.696 185.679 51.072C185.679 48.448 186.159 46.24 187.119 44.448C188.143 42.592 189.455 41.184 191.055 40.224C192.719 39.264 194.575 38.784 196.623 38.784C198.735 38.784 200.591 39.264 202.191 40.224C203.855 41.184 205.167 42.592 206.127 44.448C207.087 46.24 207.567 48.448 207.567 51.072C207.567 53.696 207.087 55.968 206.127 57.888C205.167 59.744 203.855 61.152 202.191 62.112ZM246.719 51.1574L226.9 77.184H246.676L256.626 63.565L265.973 77.184H286.805L266.937 50.5322L286.133 25.152H266.836L257.253 38.3121L248.02 25.152H227.477L246.719 51.1574ZM292.386 25.152V77.184H310.626V25.152H292.386ZM293.442 16.608C295.49 18.464 298.178 19.392 301.506 19.392C304.898 19.392 307.586 18.464 309.57 16.608C311.618 14.688 312.642 12.288 312.642 9.408C312.642 6.656 311.618 4.416 309.57 2.688C307.522 0.896 304.834 0 301.506 0C298.178 0 295.49 0.927999 293.442 2.784C291.394 4.64 290.37 6.944 290.37 9.696C290.37 12.448 291.394 14.752 293.442 16.608Z" fill="black"/>
<circle cx="333.28" cy="93.184" r="16" fill="#2728FF"/>
</svg>
